<svg xmlns="http://www.w3.org/2000/svg" xmlns:xlink="http://www.w3.org/1999/xlink" width="450" zoomAndPan="magnify" viewBox="0 0 337.5 74.999997" height="100" preserveAspectRatio="xMidYMid meet" version="1.0"><defs><g><g id="id1"/></g><clipPath id="id2"><path d="M 6.511719 8 L 10 8 L 10 13 L 6.511719 13 Z M 6.511719 8 " clip-rule="nonzero"/></clipPath><clipPath id="id3"><path d="M 24 6.390625 L 31 6.390625 L 31 13 L 24 13 Z M 24 6.390625 " clip-rule="nonzero"/></clipPath><clipPath id="id4"><path d="M 19 11 L 77 11 L 77 68.640625 L 19 68.640625 Z M 19 11 " clip-rule="nonzero"/></clipPath></defs><g fill="rgb(23.139954%, 23.139954%, 41.958618%)" fill-opacity="1"><g transform="translate(83.624425, 46.669877)"><g><path d="M 18.953125 0 L 16.46875 0 L 16.453125 -11.921875 L 11.40625 -1.65625 L 9.65625 -1.65625 L 4.625 -11.921875 L 4.625 0 L 2.09375 0 L 2.09375 -15.953125 L 5.28125 -15.953125 L 10.546875 -5.359375 L 15.78125 -15.953125 L 18.953125 -15.953125 Z M 18.953125 0 "/></g></g></g><g fill="rgb(23.139954%, 23.139954%, 41.958618%)" fill-opacity="1"><g transform="translate(108.894128, 46.669877)"><g><path d="M 6.921875 -12.203125 C 9.003906 -12.203125 10.507812 -11.578125 11.4375 -10.328125 C 12.375 -9.078125 12.757812 -7.320312 12.59375 -5.0625 L 3.4375 -5.0625 C 3.65625 -4.113281 4.097656 -3.367188 4.765625 -2.828125 C 5.429688 -2.296875 6.242188 -2.03125 7.203125 -2.03125 C 8.566406 -2.03125 9.703125 -2.5 10.609375 -3.4375 L 12 -1.953125 C 10.757812 -0.585938 9.09375 0.09375 7 0.09375 C 5.125 0.09375 3.617188 -0.46875 2.484375 -1.59375 C 1.359375 -2.726562 0.796875 -4.207031 0.796875 -6.03125 C 0.796875 -7.851562 1.363281 -9.332031 2.5 -10.46875 C 3.644531 -11.613281 5.117188 -12.191406 6.921875 -12.203125 Z M 3.390625 -6.96875 L 10.3125 -6.96875 C 10.269531 -7.9375 9.941406 -8.703125 9.328125 -9.265625 C 8.722656 -9.828125 7.929688 -10.109375 6.953125 -10.109375 C 5.992188 -10.109375 5.195312 -9.828125 4.5625 -9.265625 C 3.9375 -8.703125 3.546875 -7.9375 3.390625 -6.96875 Z M 3.390625 -6.96875 "/></g></g></g><g fill="rgb(23.139954%, 23.139954%, 41.958618%)" fill-opacity="1"><g transform="translate(126.48494, 46.669877)"><g><path d="M 12.9375 -12.125 L 12.9375 0 L 10.3125 0 L 10.3125 -2.375 C 9.53125 -0.757812 8.085938 0.0625 5.984375 0.09375 C 4.609375 0.09375 3.523438 -0.320312 2.734375 -1.15625 C 1.941406 -2 1.546875 -3.140625 1.546875 -4.578125 L 1.546875 -12.125 L 4.171875 -12.125 L 4.171875 -5.3125 C 4.171875 -4.394531 4.421875 -3.675781 4.921875 -3.15625 C 5.421875 -2.632812 6.113281 -2.375 7 -2.375 C 8.007812 -2.382812 8.8125 -2.742188 9.40625 -3.453125 C 10.007812 -4.160156 10.3125 -5.0625 10.3125 -6.15625 L 10.3125 -12.125 Z M 12.9375 -12.125 "/></g></g></g><g fill="rgb(23.139954%, 23.139954%, 41.958618%)" fill-opacity="1"><g transform="translate(145.55685, 46.669877)"><g/></g></g><g fill="rgb(23.139954%, 23.139954%, 41.958618%)" fill-opacity="1"><g transform="translate(155.628281, 46.669877)"><g><path d="M 9.15625 -16.015625 C 10.28125 -16.015625 11.378906 -15.796875 12.453125 -15.359375 C 13.523438 -14.929688 14.445312 -14.332031 15.21875 -13.5625 L 13.640625 -11.59375 C 13.066406 -12.21875 12.382812 -12.710938 11.59375 -13.078125 C 10.800781 -13.441406 10.003906 -13.625 9.203125 -13.625 C 7.609375 -13.625 6.257812 -13.078125 5.15625 -11.984375 C 4.0625 -10.898438 3.515625 -9.578125 3.515625 -8.015625 C 3.515625 -6.441406 4.0625 -5.109375 5.15625 -4.015625 C 6.257812 -2.929688 7.609375 -2.390625 9.203125 -2.390625 C 10.859375 -2.390625 12.335938 -3.019531 13.640625 -4.28125 L 15.234375 -2.5 C 14.421875 -1.695312 13.46875 -1.0625 12.375 -0.59375 C 11.28125 -0.125 10.175781 0.109375 9.0625 0.109375 C 6.726562 0.109375 4.765625 -0.664062 3.171875 -2.21875 C 1.578125 -3.78125 0.78125 -5.707031 0.78125 -8 C 0.78125 -10.257812 1.585938 -12.160156 3.203125 -13.703125 C 4.816406 -15.242188 6.800781 -16.015625 9.15625 -16.015625 Z M 9.15625 -16.015625 "/></g></g></g><g fill="rgb(23.139954%, 23.139954%, 41.958618%)" fill-opacity="1"><g transform="translate(175.702768, 46.669877)"><g><path d="M 9.203125 0 L 9.203125 -1.484375 C 8.335938 -0.421875 7 0.109375 5.1875 0.109375 C 3.894531 0.109375 2.863281 -0.238281 2.09375 -0.9375 C 1.320312 -1.644531 0.9375 -2.546875 0.9375 -3.640625 C 0.9375 -4.753906 1.335938 -5.632812 2.140625 -6.28125 C 2.941406 -6.9375 4.066406 -7.273438 5.515625 -7.296875 L 9.1875 -7.296875 L 9.1875 -7.65625 C 9.1875 -8.425781 8.9375 -9.023438 8.4375 -9.453125 C 7.945312 -9.878906 7.226562 -10.09375 6.28125 -10.09375 C 5.113281 -10.09375 3.925781 -9.679688 2.71875 -8.859375 L 1.640625 -10.6875 C 2.566406 -11.226562 3.394531 -11.613281 4.125 -11.84375 C 4.863281 -12.082031 5.773438 -12.203125 6.859375 -12.203125 C 8.410156 -12.203125 9.609375 -11.828125 10.453125 -11.078125 C 11.304688 -10.328125 11.738281 -9.285156 11.75 -7.953125 L 11.78125 0 Z M 5.734375 -1.953125 C 6.660156 -1.953125 7.445312 -2.164062 8.09375 -2.59375 C 8.738281 -3.03125 9.101562 -3.585938 9.1875 -4.265625 L 9.1875 -5.375 L 5.90625 -5.375 C 5.039062 -5.375 4.40625 -5.25 4 -5 C 3.59375 -4.75 3.390625 -4.335938 3.390625 -3.765625 C 3.390625 -3.210938 3.597656 -2.769531 4.015625 -2.4375 C 4.429688 -2.113281 5.003906 -1.953125 5.734375 -1.953125 Z M 5.734375 -1.953125 "/></g></g></g><g fill="rgb(23.139954%, 23.139954%, 41.958618%)" fill-opacity="1"><g transform="translate(193.248006, 46.669877)"><g><path d="M 17.75 -12.203125 C 19.125 -12.203125 20.207031 -11.785156 21 -10.953125 C 21.789062 -10.117188 22.1875 -8.984375 22.1875 -7.546875 L 22.1875 0 L 19.5625 0 L 19.5625 -6.8125 C 19.5625 -7.738281 19.304688 -8.460938 18.796875 -8.984375 C 18.296875 -9.503906 17.597656 -9.765625 16.703125 -9.765625 C 15.679688 -9.742188 14.867188 -9.378906 14.265625 -8.671875 C 13.671875 -7.960938 13.375 -7.066406 13.375 -5.984375 L 13.375 0 L 10.75 0 L 10.75 -6.8125 C 10.75 -7.738281 10.492188 -8.460938 9.984375 -8.984375 C 9.472656 -9.503906 8.78125 -9.765625 7.90625 -9.765625 C 6.875 -9.742188 6.050781 -9.378906 5.4375 -8.671875 C 4.832031 -7.960938 4.53125 -7.066406 4.53125 -5.984375 L 4.53125 0 L 1.9375 0 L 1.9375 -12.125 L 4.53125 -12.125 L 4.53125 -9.765625 C 5.332031 -11.390625 6.800781 -12.203125 8.9375 -12.203125 C 10.007812 -12.203125 10.90625 -11.945312 11.625 -11.4375 C 12.351562 -10.9375 12.859375 -10.222656 13.140625 -9.296875 C 13.890625 -11.234375 15.425781 -12.203125 17.75 -12.203125 Z M 17.75 -12.203125 "/></g></g></g><g fill="rgb(23.139954%, 23.139954%, 41.958618%)" fill-opacity="1"><g transform="translate(221.20645, 46.669877)"><g><path d="M 8.90625 -12.203125 C 10.625 -12.203125 12.015625 -11.628906 13.078125 -10.484375 C 14.148438 -9.335938 14.6875 -7.847656 14.6875 -6.015625 C 14.6875 -4.191406 14.160156 -2.71875 13.109375 -1.59375 C 12.066406 -0.46875 10.679688 0.09375 8.953125 0.09375 C 7.003906 0.09375 5.578125 -0.632812 4.671875 -2.09375 L 4.671875 4.421875 L 2.046875 4.421875 L 2.046875 -12.125 L 4.671875 -12.125 L 4.671875 -10.03125 C 5.578125 -11.476562 6.988281 -12.203125 8.90625 -12.203125 Z M 5.703125 -3.234375 C 6.398438 -2.503906 7.285156 -2.140625 8.359375 -2.140625 C 9.441406 -2.140625 10.328125 -2.503906 11.015625 -3.234375 C 11.703125 -3.972656 12.046875 -4.929688 12.046875 -6.109375 C 12.046875 -7.242188 11.703125 -8.179688 11.015625 -8.921875 C 10.328125 -9.660156 9.441406 -10.03125 8.359375 -10.03125 C 7.285156 -10.03125 6.398438 -9.660156 5.703125 -8.921875 C 5.015625 -8.179688 4.671875 -7.242188 4.671875 -6.109375 C 4.671875 -4.929688 5.015625 -3.972656 5.703125 -3.234375 Z M 5.703125 -3.234375 "/></g></g></g><g fill="rgb(23.139954%, 23.139954%, 41.958618%)" fill-opacity="1"><g transform="translate(240.893588, 46.669877)"><g><path d="M 6.921875 -12.203125 C 9.003906 -12.203125 10.507812 -11.578125 11.4375 -10.328125 C 12.375 -9.078125 12.757812 -7.320312 12.59375 -5.0625 L 3.4375 -5.0625 C 3.65625 -4.113281 4.097656 -3.367188 4.765625 -2.828125 C 5.429688 -2.296875 6.242188 -2.03125 7.203125 -2.03125 C 8.566406 -2.03125 9.703125 -2.5 10.609375 -3.4375 L 12 -1.953125 C 10.757812 -0.585938 9.09375 0.09375 7 0.09375 C 5.125 0.09375 3.617188 -0.46875 2.484375 -1.59375 C 1.359375 -2.726562 0.796875 -4.207031 0.796875 -6.03125 C 0.796875 -7.851562 1.363281 -9.332031 2.5 -10.46875 C 3.644531 -11.613281 5.117188 -12.191406 6.921875 -12.203125 Z M 3.390625 -6.96875 L 10.3125 -6.96875 C 10.269531 -7.9375 9.941406 -8.703125 9.328125 -9.265625 C 8.722656 -9.828125 7.929688 -10.109375 6.953125 -10.109375 C 5.992188 -10.109375 5.195312 -9.828125 4.5625 -9.265625 C 3.9375 -8.703125 3.546875 -7.9375 3.390625 -6.96875 Z M 3.390625 -6.96875 "/></g></g></g><g fill="rgb(23.139954%, 23.139954%, 41.958618%)" fill-opacity="1"><g transform="translate(258.484407, 46.669877)"><g><path d="M 5.5625 -12.234375 C 7.226562 -12.234375 8.640625 -11.820312 9.796875 -11 L 8.84375 -9.0625 C 7.6875 -9.78125 6.523438 -10.140625 5.359375 -10.140625 C 4.171875 -10.140625 3.578125 -9.738281 3.578125 -8.9375 C 3.578125 -8.539062 3.796875 -8.210938 4.234375 -7.953125 C 4.671875 -7.691406 5.203125 -7.472656 5.828125 -7.296875 C 6.460938 -7.128906 7.09375 -6.925781 7.71875 -6.6875 C 8.351562 -6.445312 8.890625 -6.0625 9.328125 -5.53125 C 9.773438 -5 10 -4.328125 10 -3.515625 C 10 -2.335938 9.550781 -1.441406 8.65625 -0.828125 C 7.769531 -0.210938 6.671875 0.09375 5.359375 0.09375 C 4.441406 0.09375 3.546875 -0.0507812 2.671875 -0.34375 C 1.796875 -0.644531 1.066406 -1.0625 0.484375 -1.59375 L 1.40625 -3.46875 C 1.925781 -3.007812 2.5625 -2.640625 3.3125 -2.359375 C 4.0625 -2.085938 4.78125 -1.953125 5.46875 -1.953125 C 6.0625 -1.953125 6.539062 -2.054688 6.90625 -2.265625 C 7.269531 -2.484375 7.453125 -2.8125 7.453125 -3.25 C 7.453125 -3.707031 7.226562 -4.070312 6.78125 -4.34375 C 6.34375 -4.625 5.8125 -4.847656 5.1875 -5.015625 C 4.570312 -5.179688 3.953125 -5.378906 3.328125 -5.609375 C 2.703125 -5.835938 2.171875 -6.210938 1.734375 -6.734375 C 1.304688 -7.253906 1.09375 -7.914062 1.09375 -8.71875 C 1.09375 -9.875 1.519531 -10.75 2.375 -11.34375 C 3.238281 -11.9375 4.300781 -12.234375 5.5625 -12.234375 Z M 5.5625 -12.234375 "/></g></g></g><g fill="rgb(23.139954%, 23.139954%, 41.958618%)" fill-opacity="1"><g transform="translate(273.386474, 46.669877)"><g><path d="M 8.140625 -2.78125 L 8.796875 -0.78125 C 7.796875 -0.1875 6.800781 0.109375 5.8125 0.109375 C 4.820312 0.109375 4.007812 -0.179688 3.375 -0.765625 C 2.738281 -1.359375 2.421875 -2.242188 2.421875 -3.421875 L 2.421875 -9.703125 L 0.703125 -9.703125 L 0.703125 -11.65625 L 2.421875 -11.65625 L 2.421875 -14.984375 L 5.015625 -14.984375 L 5.015625 -11.65625 L 8.59375 -11.65625 L 8.59375 -9.703125 L 5.015625 -9.703125 L 5.015625 -3.890625 C 5.015625 -3.285156 5.117188 -2.859375 5.328125 -2.609375 C 5.546875 -2.367188 5.875 -2.25 6.3125 -2.25 C 6.800781 -2.25 7.410156 -2.425781 8.140625 -2.78125 Z M 8.140625 -2.78125 "/></g></g></g><g fill="rgb(23.139954%, 23.139954%, 41.958618%)" fill-opacity="1"><g transform="translate(286.853027, 46.669877)"><g><path d="M 4.5625 -12.125 L 4.5625 -9.703125 C 5.394531 -11.367188 6.789062 -12.203125 8.75 -12.203125 L 8.75 -9.703125 C 7.550781 -9.765625 6.578125 -9.484375 5.828125 -8.859375 C 5.085938 -8.234375 4.664062 -7.390625 4.5625 -6.328125 L 4.5625 0 L 1.9375 0 L 1.9375 -12.125 Z M 4.5625 -12.125 "/></g></g></g><g fill="rgb(23.139954%, 23.139954%, 41.958618%)" fill-opacity="1"><g transform="translate(300.023351, 46.669877)"><g><path d="M 6.921875 -12.203125 C 9.003906 -12.203125 10.507812 -11.578125 11.4375 -10.328125 C 12.375 -9.078125 12.757812 -7.320312 12.59375 -5.0625 L 3.4375 -5.0625 C 3.65625 -4.113281 4.097656 -3.367188 4.765625 -2.828125 C 5.429688 -2.296875 6.242188 -2.03125 7.203125 -2.03125 C 8.566406 -2.03125 9.703125 -2.5 10.609375 -3.4375 L 12 -1.953125 C 10.757812 -0.585938 9.09375 0.09375 7 0.09375 C 5.125 0.09375 3.617188 -0.46875 2.484375 -1.59375 C 1.359375 -2.726562 0.796875 -4.207031 0.796875 -6.03125 C 0.796875 -7.851562 1.363281 -9.332031 2.5 -10.46875 C 3.644531 -11.613281 5.117188 -12.191406 6.921875 -12.203125 Z M 3.390625 -6.96875 L 10.3125 -6.96875 C 10.269531 -7.9375 9.941406 -8.703125 9.328125 -9.265625 C 8.722656 -9.828125 7.929688 -10.109375 6.953125 -10.109375 C 5.992188 -10.109375 5.195312 -9.828125 4.5625 -9.265625 C 3.9375 -8.703125 3.546875 -7.9375 3.390625 -6.96875 Z M 3.390625 -6.96875 "/></g></g></g><path fill="rgb(22.349548%, 65.879822%, 20.779419%)" d="M 14.011719 15.539062 L 17.925781 15.539062 L 17.925781 11.617188 L 14.011719 11.617188 L 14.011719 15.539062 " fill-opacity="1" fill-rule="nonzero"/><g clip-path="url(#id2)"><path fill="rgb(22.349548%, 65.879822%, 20.779419%)" d="M 6.523438 12.179688 L 9.753906 12.179688 L 9.753906 8.945312 L 6.523438 8.945312 L 6.523438 12.179688 " fill-opacity="1" fill-rule="nonzero"/></g><g clip-path="url(#id3)"><path fill="rgb(22.349548%, 65.879822%, 20.779419%)" d="M 24.449219 12.921875 L 30.972656 12.921875 L 30.972656 6.386719 L 24.449219 6.386719 L 24.449219 12.921875 " fill-opacity="1" fill-rule="nonzero"/></g><path fill="rgb(22.349548%, 65.879822%, 20.779419%)" d="M 12.707031 29.589844 L 19.230469 29.589844 L 19.230469 23.054688 L 12.707031 23.054688 L 12.707031 29.589844 " fill-opacity="1" fill-rule="nonzero"/><path fill="rgb(22.349548%, 65.879822%, 20.779419%)" d="M 8.140625 23.054688 L 12.707031 23.054688 L 12.707031 18.476562 L 8.140625 18.476562 L 8.140625 23.054688 " fill-opacity="1" fill-rule="nonzero"/><g clip-path="url(#id4)"><path fill="rgb(22.349548%, 65.879822%, 20.779419%)" d="M 27.414062 46.382812 C 27.414062 46.382812 38.863281 45.109375 43.144531 59.324219 C 40.9375 58.851562 35.992188 57.09375 31.273438 50.589844 C 31.273438 50.589844 35.25 58.984375 43.492188 60.574219 C 26.941406 63.261719 27.414062 46.382812 27.414062 46.382812 Z M 39.613281 29.589844 L 33.089844 29.589844 L 33.089844 23.054688 L 39.613281 23.054688 Z M 62.445312 45.46875 C 62.445312 45.46875 65.953125 56.460938 52.890625 63.476562 C 52.917969 61.21875 53.65625 56.011719 59.09375 50.089844 C 59.09375 50.089844 51.664062 55.65625 51.738281 64.066406 C 45.835938 48.339844 62.445312 45.46875 62.445312 45.46875 Z M 19.882812 40.03125 C 19.882812 55.832031 32.667969 68.640625 48.4375 68.640625 C 48.777344 68.640625 49.117188 68.632812 49.453125 68.621094 C 44.1875 61.976562 42.328125 53.332031 44.15625 45.257812 C 39.964844 26.824219 60.507812 22.324219 60.507812 22.324219 C 60.507812 22.324219 66.410156 38.347656 47.558594 49.574219 C 47.449219 46.230469 48.203125 38.488281 55.851562 29.378906 C 55.851562 29.378906 46.367188 36.945312 45.90625 48.058594 C 45.601562 55.367188 48.488281 62.664062 53.972656 68.101562 C 67.097656 65.519531 76.996094 53.933594 76.996094 40.03125 C 76.996094 24.230469 64.210938 11.421875 48.4375 11.421875 C 42.789062 11.421875 37.523438 13.066406 33.089844 15.902344 L 33.089844 20.277344 L 27.785156 20.277344 C 27.761719 20.300781 27.734375 20.328125 27.710938 20.355469 L 27.710938 20.277344 L 26.570312 20.277344 L 26.570312 17.335938 L 21.1875 17.335938 L 21.1875 23.054688 L 27.710938 23.054688 L 27.710938 29.589844 L 21.847656 29.589844 C 20.578125 32.824219 19.882812 36.34375 19.882812 40.03125 " fill-opacity="1" fill-rule="nonzero"/></g></svg>